<svg width="20" height="20" viewBox="0 0 20 20" fill="none" xmlns="http://www.w3.org/2000/svg">
<path d="M7.97917 10L4.75 6.75002C4.59722 6.59724 4.51722 6.40641 4.51 6.17752C4.50278 5.94863 4.58278 5.75058 4.75 5.58335C4.90278 5.43058 5.09722 5.35419 5.33333 5.35419C5.56944 5.35419 5.76389 5.43058 5.91667 5.58335L9.75 9.41669C9.83333 9.50002 9.8925 9.5903 9.9275 9.68752C9.9625 9.78474 9.97972 9.88891 9.97917 10C9.97861 10.1111 9.96139 10.2153 9.9275 10.3125C9.89361 10.4097 9.83444 10.5 9.75 10.5834L5.91667 14.4167C5.76389 14.5695 5.57306 14.6495 5.34417 14.6567C5.11528 14.6639 4.91722 14.5839 4.75 14.4167C4.59722 14.2639 4.52083 14.0695 4.52083 13.8334C4.52083 13.5972 4.59722 13.4028 4.75 13.25L7.97917 10ZM13.4792 10L10.25 6.75002C10.0972 6.59724 10.0172 6.40641 10.01 6.17752C10.0028 5.94863 10.0828 5.75058 10.25 5.58335C10.4028 5.43058 10.5972 5.35419 10.8333 5.35419C11.0694 5.35419 11.2639 5.43058 11.4167 5.58335L15.25 9.41669C15.3333 9.50002 15.3925 9.5903 15.4275 9.68752C15.4625 9.78474 15.4797 9.88891 15.4792 10C15.4786 10.1111 15.4614 10.2153 15.4275 10.3125C15.3936 10.4097 15.3344 10.5 15.25 10.5834L11.4167 14.4167C11.2639 14.5695 11.0731 14.6495 10.8442 14.6567C10.6153 14.6639 10.4172 14.5839 10.25 14.4167C10.0972 14.2639 10.0208 14.0695 10.0208 13.8334C10.0208 13.5972 10.0972 13.4028 10.25 13.25L13.4792 10Z" fill="black"/>
</svg>
