<svg width="20" height="20" viewBox="0 0 20 20" fill="none" xmlns="http://www.w3.org/2000/svg">
<path d="M4.16668 16.6667H15.8333C16.0695 16.6667 16.2675 16.7467 16.4275 16.9067C16.5875 17.0667 16.6672 17.2645 16.6667 17.5C16.6661 17.7356 16.5861 17.9336 16.4267 18.0942C16.2672 18.2547 16.0695 18.3345 15.8333 18.3334H4.16668C3.93057 18.3334 3.73279 18.2534 3.57335 18.0934C3.4139 17.9334 3.3339 17.7356 3.33335 17.5C3.33279 17.2645 3.41279 17.0667 3.57335 16.9067C3.7339 16.7467 3.93168 16.6667 4.16668 16.6667ZM10 14.4792C9.87501 14.4792 9.75362 14.4514 9.63585 14.3959C9.51807 14.3403 9.41723 14.257 9.33335 14.1459L5.20835 8.85419C5.00001 8.57641 4.97224 8.28141 5.12501 7.96919C5.27779 7.65696 5.52779 7.50058 5.87501 7.50002H7.50001V2.50002C7.50001 2.26391 7.58001 2.06613 7.74001 1.90669C7.90001 1.74724 8.09779 1.66724 8.33335 1.66669H11.6667C11.9028 1.66669 12.1008 1.74669 12.2608 1.90669C12.4208 2.06669 12.5006 2.26446 12.5 2.50002V7.50002H14.125C14.4722 7.50002 14.7222 7.65641 14.875 7.96919C15.0278 8.28196 15 8.57696 14.7917 8.85419L10.6667 14.1459C10.5833 14.257 10.4825 14.3403 10.3642 14.3959C10.2458 14.4514 10.1245 14.4792 10 14.4792Z" fill="black"/>
</svg>
