<svg width="20" height="20" viewBox="0 0 20 20" fill="none" xmlns="http://www.w3.org/2000/svg">
<path d="M4.99998 18.3334C4.54165 18.3334 4.14942 18.1703 3.82331 17.8442C3.4972 17.5181 3.33387 17.1256 3.33331 16.6667V3.33335C3.33331 2.87502 3.49665 2.4828 3.82331 2.15669C4.14998 1.83058 4.5422 1.66724 4.99998 1.66669H10.9791C11.2014 1.66669 11.4133 1.70835 11.615 1.79169C11.8166 1.87502 11.9936 1.99308 12.1458 2.14585L16.1875 6.18752C16.3403 6.3403 16.4583 6.51752 16.5416 6.71919C16.625 6.92085 16.6666 7.13252 16.6666 7.35419V16.6667C16.6666 17.125 16.5036 17.5175 16.1775 17.8442C15.8514 18.1709 15.4589 18.3339 15 18.3334H4.99998ZM10.8333 6.66669V3.33335H4.99998V16.6667H15V7.50002H11.6666C11.4305 7.50002 11.2328 7.42002 11.0733 7.26002C10.9139 7.10002 10.8339 6.90224 10.8333 6.66669Z" fill="black"/>
</svg>
