<svg width="20" height="20" viewBox="0 0 20 20" fill="none" xmlns="http://www.w3.org/2000/svg">
<path d="M3.33332 16.6666C2.87499 16.6666 2.48277 16.5036 2.15666 16.1775C1.83055 15.8514 1.66721 15.4589 1.66666 15V4.99998C1.66666 4.54165 1.82999 4.14942 2.15666 3.82331C2.48332 3.4972 2.87555 3.33387 3.33332 3.33331H7.64582C7.86805 3.33331 8.07999 3.37498 8.28166 3.45831C8.48332 3.54165 8.66027 3.6597 8.81249 3.81248L9.99999 4.99998H17.5C17.7361 4.99998 17.9342 5.07998 18.0942 5.23998C18.2542 5.39998 18.3339 5.59776 18.3333 5.83331C18.3328 6.06887 18.2528 6.26692 18.0933 6.42748C17.9339 6.58803 17.7361 6.66776 17.5 6.66665H9.31249L7.64582 4.99998H3.33332V15L4.97916 9.52081C5.09027 9.1597 5.29527 8.87165 5.59416 8.65665C5.89305 8.44165 6.22277 8.33387 6.58332 8.33331H17.3333C17.9028 8.33331 18.3508 8.55915 18.6775 9.01081C19.0042 9.46248 19.0908 9.95192 18.9375 10.4791L17.4375 15.4791C17.3264 15.8403 17.1217 16.1286 16.8233 16.3441C16.525 16.5597 16.195 16.6672 15.8333 16.6666H3.33332ZM5.08332 15H15.8333L17.3333 9.99998H6.58332L5.08332 15Z" fill="black"/>
</svg>
