<svg width="20" height="20" viewBox="0 0 20 20" fill="none" xmlns="http://www.w3.org/2000/svg">
<g clip-path="url(#clip0_1_76)">
<path d="M10.0002 0.246887C4.47793 0.246887 0 4.7238 0 10.2468C0 14.6651 2.86531 18.4135 6.83859 19.7358C7.33832 19.8284 7.52203 19.5188 7.52203 19.2547C7.52203 19.0164 7.51266 18.2285 7.50844 17.3929C4.72625 17.9979 4.13922 16.2131 4.13922 16.2131C3.68449 15.0573 3.02891 14.7499 3.02891 14.7499C2.12164 14.1292 3.09746 14.142 3.09746 14.142C4.10137 14.2125 4.6302 15.1726 4.6302 15.1726C5.52223 16.7013 6.96957 16.2593 7.54043 16.0038C7.63004 15.3576 7.8891 14.9163 8.17531 14.6666C5.95402 14.4138 3.61914 13.5562 3.61914 9.72454C3.61914 8.63279 4.00984 7.74068 4.64961 7.0404C4.54578 6.78845 4.20324 5.77142 4.74633 4.39392C4.74633 4.39392 5.58629 4.12532 7.49711 5.41911C8.29469 5.19747 9.15016 5.08638 10.0001 5.08251C10.8498 5.08638 11.7059 5.19747 12.5051 5.41911C14.414 4.12529 15.2523 4.39392 15.2523 4.39392C15.7967 5.77142 15.4545 6.78845 15.3507 7.0404C15.9917 7.74072 16.3798 8.63282 16.3798 9.72454C16.3798 13.5654 14.0404 14.4111 11.8136 14.6586C12.1723 14.969 12.4918 15.5775 12.4918 16.5104C12.4918 17.8484 12.4802 18.9253 12.4802 19.2547C12.4802 19.5209 12.6603 19.8327 13.1671 19.7345C17.1383 18.4108 20 14.6637 20 10.2468C20 4.7238 15.5228 0.246887 10.0002 0.246887Z" fill="black"/>
</g>
<defs>
<clipPath id="clip0_1_76">
<rect width="20" height="20" fill="white"/>
</clipPath>
</defs>
</svg>
