<svg width="20" height="20" viewBox="0 0 20 20" fill="none" xmlns="http://www.w3.org/2000/svg">
<path d="M4.16666 18.3334C3.70832 18.3334 3.3161 18.1703 2.98999 17.8442C2.66388 17.5181 2.50055 17.1256 2.49999 16.6667V7.27085C2.24999 7.11808 2.0486 6.9203 1.89582 6.67752C1.74305 6.43474 1.66666 6.15335 1.66666 5.83335V3.33335C1.66666 2.87502 1.82999 2.4828 2.15666 2.15669C2.48332 1.83058 2.87555 1.66724 3.33332 1.66669H16.6667C17.125 1.66669 17.5175 1.83002 17.8442 2.15669C18.1708 2.48335 18.3339 2.87558 18.3333 3.33335V5.83335C18.3333 6.1528 18.2569 6.43419 18.1042 6.67752C17.9514 6.92085 17.75 7.11835 17.5 7.27002V16.6667C17.5 17.125 17.3369 17.5175 17.0108 17.8442C16.6847 18.1709 16.2922 18.3339 15.8333 18.3334H4.16666ZM4.16666 7.50002V16.6667H15.8333V7.50002H4.16666ZM3.33332 5.83335H16.6667V3.33335H3.33332V5.83335ZM8.33332 11.6667H11.6667C11.9028 11.6667 12.1008 11.5867 12.2608 11.4267C12.4208 11.2667 12.5005 11.0689 12.5 10.8334C12.4994 10.5978 12.4194 10.4 12.26 10.24C12.1005 10.08 11.9028 10 11.6667 10H8.33332C8.09721 10 7.89943 10.08 7.73999 10.24C7.58055 10.4 7.50055 10.5978 7.49999 10.8334C7.49943 11.0689 7.57943 11.267 7.73999 11.4275C7.90055 11.5881 8.09832 11.6678 8.33332 11.6667Z" fill="black"/>
</svg>
