<svg width="20" height="20" viewBox="0 0 20 20" fill="none" xmlns="http://www.w3.org/2000/svg">
<path d="M9.16667 16.1875V10.4792L4.16667 7.58335V13.2917L9.16667 16.1875ZM10.8333 16.1875L15.8333 13.2917V7.58335L10.8333 10.4792V16.1875ZM9.16667 18.1042L3.33333 14.75C3.06944 14.5972 2.86472 14.3959 2.71917 14.1459C2.57361 13.8959 2.50056 13.6181 2.5 13.3125V6.68752C2.5 6.38196 2.57306 6.10419 2.71917 5.85419C2.86528 5.60419 3.07 5.4028 3.33333 5.25002L9.16667 1.89585C9.43056 1.74308 9.70833 1.66669 10 1.66669C10.2917 1.66669 10.5694 1.74308 10.8333 1.89585L16.6667 5.25002C16.9306 5.4028 17.1356 5.60419 17.2817 5.85419C17.4278 6.10419 17.5006 6.38196 17.5 6.68752V13.3125C17.5 13.6181 17.4272 13.8959 17.2817 14.1459C17.1361 14.3959 16.9311 14.5972 16.6667 14.75L10.8333 18.1042C10.5694 18.257 10.2917 18.3334 10 18.3334C9.70833 18.3334 9.43056 18.257 9.16667 18.1042ZM13.3333 7.10419L14.9375 6.18752L10 3.33335L8.375 4.27085L13.3333 7.10419ZM10 9.04169L11.625 8.10419L6.6875 5.25002L5.0625 6.18752L10 9.04169Z" fill="black"/>
</svg>
