<svg width="166" height="166" viewBox="0 0 166 166" fill="none" xmlns="http://www.w3.org/2000/svg">
<g clip-path="url(#clip0_93_159)">
<rect x="15" y="37" width="137" height="115" fill="#CCF1F7"/>
<path d="M30 13H138L150.5 39H16.5L30 13Z" fill="#CCF1F7"/>
<path d="M48.3337 71.3334V80C48.3337 82.3834 46.3837 84.3334 44.0003 84.3334C41.617 84.3334 39.667 86.2834 39.667 88.6667V97.3334C39.667 99.7167 41.617 101.667 44.0003 101.667C46.3837 101.667 48.3337 103.617 48.3337 106V114.667C48.3337 121.86 54.1403 127.667 61.3337 127.667H70.0003C72.3837 127.667 74.3337 125.717 74.3337 123.333C74.3337 120.95 72.3837 119 70.0003 119H61.3337C58.9503 119 57.0003 117.05 57.0003 114.667V106C57.0003 100.367 53.3603 95.5134 48.3337 93.7367V92.2634C53.3603 90.4867 57.0003 85.6334 57.0003 80V71.3334C57.0003 68.95 58.9503 67 61.3337 67H70.0003C72.3837 67 74.3337 65.05 74.3337 62.6667C74.3337 60.2834 72.3837 58.3334 70.0003 58.3334H61.3337C54.1403 58.3334 48.3337 64.14 48.3337 71.3334ZM122 84.3334C119.617 84.3334 117.667 82.3834 117.667 80V71.3334C117.667 64.14 111.86 58.3334 104.667 58.3334H96.0003C93.617 58.3334 91.667 60.2834 91.667 62.6667C91.667 65.05 93.617 67 96.0003 67H104.667C107.05 67 109 68.95 109 71.3334V80C109 85.6334 112.64 90.4867 117.667 92.2634V93.7367C112.64 95.5134 109 100.323 109 106V114.667C109 117.05 107.05 119 104.667 119H96.0003C93.617 119 91.667 120.95 91.667 123.333C91.667 125.717 93.617 127.667 96.0003 127.667H104.667C111.86 127.667 117.667 121.86 117.667 114.667V106C117.667 103.617 119.617 101.667 122 101.667C124.384 101.667 126.334 99.7167 126.334 97.3334V88.6667C126.334 86.2834 124.384 84.3334 122 84.3334Z" fill="#54BBCA"/>
<path d="M18 37H148C151.314 37 154 39.6863 154 43V148C154 151.314 151.314 154 148 154H18C14.6863 154 12 151.314 12 148V43C12 39.6863 14.6863 37 18 37Z" stroke="#54BBCA" stroke-width="8"/>
<path d="M135.64 14.6718L135.651 14.688L135.662 14.7041L150.621 36.6758L150.524 37H15.9719L15.6274 36.3108L30.3375 14.7041L30.3484 14.688L30.3592 14.6718C31.472 13.0026 33.3454 12 35.3515 12H130.648C132.654 12 134.527 13.0026 135.64 14.6718Z" stroke="#54BBCA" stroke-width="8"/>
</g>
<defs>
<clipPath id="clip0_93_159">
<rect width="166" height="166" fill="white"/>
</clipPath>
</defs>
</svg>
