<svg xmlns="http://www.w3.org/2000/svg" xmlns:xlink="http://www.w3.org/1999/xlink"><defs><style>
    .sprite-symbol-usage {display: none;}
    .sprite-symbol-usage:target {display: inline;}
  </style><symbol viewBox="0 0 20 20" id="arrow-right"><path d="M7.74167 13.2333L10.975 10L7.74167 6.76668C7.66452 6.68953 7.60332 6.59793 7.56157 6.49713C7.51981 6.39633 7.49832 6.28829 7.49832 6.17918C7.49832 6.07007 7.51981 5.96203 7.56157 5.86123C7.60332 5.76042 7.66452 5.66883 7.74167 5.59168C7.81882 5.51453 7.91042 5.45333 8.01122 5.41157C8.11202 5.36982 8.22006 5.34833 8.32917 5.34833C8.43828 5.34833 8.54632 5.36982 8.64712 5.41157C8.74793 5.45333 8.83952 5.51453 8.91667 5.59168L12.7417 9.41668C13.0667 9.74168 13.0667 10.2667 12.7417 10.5917L8.91667 14.4167C8.83958 14.4939 8.748 14.5552 8.64719 14.597C8.54638 14.6389 8.43831 14.6604 8.32917 14.6604C8.22003 14.6604 8.11196 14.6389 8.01115 14.597C7.91034 14.5552 7.81877 14.4939 7.74167 14.4167C7.42501 14.0917 7.41667 13.5583 7.74167 13.2333Z" /></symbol><symbol viewBox="0 0 20 20" id="double-arrow-right"><path d="M7.97917 10L4.75 6.75002C4.59722 6.59724 4.51722 6.40641 4.51 6.17752C4.50278 5.94863 4.58278 5.75058 4.75 5.58335C4.90278 5.43058 5.09722 5.35419 5.33333 5.35419C5.56944 5.35419 5.76389 5.43058 5.91667 5.58335L9.75 9.41669C9.83333 9.50002 9.8925 9.5903 9.9275 9.68752C9.9625 9.78474 9.97972 9.88891 9.97917 10C9.97861 10.1111 9.96139 10.2153 9.9275 10.3125C9.89361 10.4097 9.83444 10.5 9.75 10.5834L5.91667 14.4167C5.76389 14.5695 5.57306 14.6495 5.34417 14.6567C5.11528 14.6639 4.91722 14.5839 4.75 14.4167C4.59722 14.2639 4.52083 14.0695 4.52083 13.8334C4.52083 13.5972 4.59722 13.4028 4.75 13.25L7.97917 10ZM13.4792 10L10.25 6.75002C10.0972 6.59724 10.0172 6.40641 10.01 6.17752C10.0028 5.94863 10.0828 5.75058 10.25 5.58335C10.4028 5.43058 10.5972 5.35419 10.8333 5.35419C11.0694 5.35419 11.2639 5.43058 11.4167 5.58335L15.25 9.41669C15.3333 9.50002 15.3925 9.5903 15.4275 9.68752C15.4625 9.78474 15.4797 9.88891 15.4792 10C15.4786 10.1111 15.4614 10.2153 15.4275 10.3125C15.3936 10.4097 15.3344 10.5 15.25 10.5834L11.4167 14.4167C11.2639 14.5695 11.0731 14.6495 10.8442 14.6567C10.6153 14.6639 10.4172 14.5839 10.25 14.4167C10.0972 14.2639 10.0208 14.0695 10.0208 13.8334C10.0208 13.5972 10.0972 13.4028 10.25 13.25L13.4792 10Z" /></symbol><symbol viewBox="0 0 20 20" id="download"><path d="M4.16668 16.6667H15.8333C16.0695 16.6667 16.2675 16.7467 16.4275 16.9067C16.5875 17.0667 16.6672 17.2645 16.6667 17.5C16.6661 17.7356 16.5861 17.9336 16.4267 18.0942C16.2672 18.2547 16.0695 18.3345 15.8333 18.3334H4.16668C3.93057 18.3334 3.73279 18.2534 3.57335 18.0934C3.4139 17.9334 3.3339 17.7356 3.33335 17.5C3.33279 17.2645 3.41279 17.0667 3.57335 16.9067C3.7339 16.7467 3.93168 16.6667 4.16668 16.6667ZM10 14.4792C9.87501 14.4792 9.75362 14.4514 9.63585 14.3959C9.51807 14.3403 9.41723 14.257 9.33335 14.1459L5.20835 8.85419C5.00001 8.57641 4.97224 8.28141 5.12501 7.96919C5.27779 7.65696 5.52779 7.50058 5.87501 7.50002H7.50001V2.50002C7.50001 2.26391 7.58001 2.06613 7.74001 1.90669C7.90001 1.74724 8.09779 1.66724 8.33335 1.66669H11.6667C11.9028 1.66669 12.1008 1.74669 12.2608 1.90669C12.4208 2.06669 12.5006 2.26446 12.5 2.50002V7.50002H14.125C14.4722 7.50002 14.7222 7.65641 14.875 7.96919C15.0278 8.28196 15 8.57696 14.7917 8.85419L10.6667 14.1459C10.5833 14.257 10.4825 14.3403 10.3642 14.3959C10.2458 14.4514 10.1245 14.4792 10 14.4792Z" /></symbol><symbol viewBox="0 0 20 20" id="file"><path d="M6.66668 13.3334H13.3333V15H6.66668V13.3334ZM6.66668 10H13.3333V11.6667H6.66668V10ZM11.6667 1.66669H5.00001C4.08334 1.66669 3.33334 2.41669 3.33334 3.33335V16.6667C3.33334 17.5834 4.07501 18.3334 4.99168 18.3334H15C15.9167 18.3334 16.6667 17.5834 16.6667 16.6667V6.66669L11.6667 1.66669ZM15 16.6667H5.00001V3.33335H10.8333V7.50002H15V16.6667Z" /></symbol><symbol viewBox="0 0 20 20" id="file-2"><path d="M4.99998 18.3334C4.54165 18.3334 4.14942 18.1703 3.82331 17.8442C3.4972 17.5181 3.33387 17.1256 3.33331 16.6667V3.33335C3.33331 2.87502 3.49665 2.4828 3.82331 2.15669C4.14998 1.83058 4.5422 1.66724 4.99998 1.66669H10.9791C11.2014 1.66669 11.4133 1.70835 11.615 1.79169C11.8166 1.87502 11.9936 1.99308 12.1458 2.14585L16.1875 6.18752C16.3403 6.3403 16.4583 6.51752 16.5416 6.71919C16.625 6.92085 16.6666 7.13252 16.6666 7.35419V16.6667C16.6666 17.125 16.5036 17.5175 16.1775 17.8442C15.8514 18.1709 15.4589 18.3339 15 18.3334H4.99998ZM10.8333 6.66669V3.33335H4.99998V16.6667H15V7.50002H11.6666C11.4305 7.50002 11.2328 7.42002 11.0733 7.26002C10.9139 7.10002 10.8339 6.90224 10.8333 6.66669Z" /></symbol><symbol viewBox="0 0 20 20" id="folder"><path d="M3.33332 16.6666C2.87499 16.6666 2.48277 16.5036 2.15666 16.1775C1.83055 15.8514 1.66721 15.4589 1.66666 15V4.99998C1.66666 4.54165 1.82999 4.14942 2.15666 3.82331C2.48332 3.4972 2.87555 3.33387 3.33332 3.33331H7.64582C7.86805 3.33331 8.07999 3.37498 8.28166 3.45831C8.48332 3.54165 8.66027 3.6597 8.81249 3.81248L9.99999 4.99998H17.5C17.7361 4.99998 17.9342 5.07998 18.0942 5.23998C18.2542 5.39998 18.3339 5.59776 18.3333 5.83331C18.3328 6.06887 18.2528 6.26692 18.0933 6.42748C17.9339 6.58803 17.7361 6.66776 17.5 6.66665H9.31249L7.64582 4.99998H3.33332V15L4.97916 9.52081C5.09027 9.1597 5.29527 8.87165 5.59416 8.65665C5.89305 8.44165 6.22277 8.33387 6.58332 8.33331H17.3333C17.9028 8.33331 18.3508 8.55915 18.6775 9.01081C19.0042 9.46248 19.0908 9.95192 18.9375 10.4791L17.4375 15.4791C17.3264 15.8403 17.1217 16.1286 16.8233 16.3441C16.525 16.5597 16.195 16.6672 15.8333 16.6666H3.33332ZM5.08332 15H15.8333L17.3333 9.99998H6.58332L5.08332 15Z" /></symbol><symbol viewBox="0 0 20 20" id="github"><g clip-path="url(#github_clip0_1_76)"><path d="M10.0002 0.246887C4.47793 0.246887 0 4.7238 0 10.2468C0 14.6651 2.86531 18.4135 6.83859 19.7358C7.33832 19.8284 7.52203 19.5188 7.52203 19.2547C7.52203 19.0164 7.51266 18.2285 7.50844 17.3929C4.72625 17.9979 4.13922 16.2131 4.13922 16.2131C3.68449 15.0573 3.02891 14.7499 3.02891 14.7499C2.12164 14.1292 3.09746 14.142 3.09746 14.142C4.10137 14.2125 4.6302 15.1726 4.6302 15.1726C5.52223 16.7013 6.96957 16.2593 7.54043 16.0038C7.63004 15.3576 7.8891 14.9163 8.17531 14.6666C5.95402 14.4138 3.61914 13.5562 3.61914 9.72454C3.61914 8.63279 4.00984 7.74068 4.64961 7.0404C4.54578 6.78845 4.20324 5.77142 4.74633 4.39392C4.74633 4.39392 5.58629 4.12532 7.49711 5.41911C8.29469 5.19747 9.15016 5.08638 10.0001 5.08251C10.8498 5.08638 11.7059 5.19747 12.5051 5.41911C14.414 4.12529 15.2523 4.39392 15.2523 4.39392C15.7967 5.77142 15.4545 6.78845 15.3507 7.0404C15.9917 7.74072 16.3798 8.63282 16.3798 9.72454C16.3798 13.5654 14.0404 14.4111 11.8136 14.6586C12.1723 14.969 12.4918 15.5775 12.4918 16.5104C12.4918 17.8484 12.4802 18.9253 12.4802 19.2547C12.4802 19.5209 12.6603 19.8327 13.1671 19.7345C17.1383 18.4108 20 14.6637 20 10.2468C20 4.7238 15.5228 0.246887 10.0002 0.246887Z" /></g><defs></defs></symbol><clipPath id="github_clip0_1_76"><rect width="20" height="20" fill="white" /></clipPath><symbol viewBox="0 0 20 20" id="inventory"><path d="M4.16666 18.3334C3.70832 18.3334 3.3161 18.1703 2.98999 17.8442C2.66388 17.5181 2.50055 17.1256 2.49999 16.6667V7.27085C2.24999 7.11808 2.0486 6.9203 1.89582 6.67752C1.74305 6.43474 1.66666 6.15335 1.66666 5.83335V3.33335C1.66666 2.87502 1.82999 2.4828 2.15666 2.15669C2.48332 1.83058 2.87555 1.66724 3.33332 1.66669H16.6667C17.125 1.66669 17.5175 1.83002 17.8442 2.15669C18.1708 2.48335 18.3339 2.87558 18.3333 3.33335V5.83335C18.3333 6.1528 18.2569 6.43419 18.1042 6.67752C17.9514 6.92085 17.75 7.11835 17.5 7.27002V16.6667C17.5 17.125 17.3369 17.5175 17.0108 17.8442C16.6847 18.1709 16.2922 18.3339 15.8333 18.3334H4.16666ZM4.16666 7.50002V16.6667H15.8333V7.50002H4.16666ZM3.33332 5.83335H16.6667V3.33335H3.33332V5.83335ZM8.33332 11.6667H11.6667C11.9028 11.6667 12.1008 11.5867 12.2608 11.4267C12.4208 11.2667 12.5005 11.0689 12.5 10.8334C12.4994 10.5978 12.4194 10.4 12.26 10.24C12.1005 10.08 11.9028 10 11.6667 10H8.33332C8.09721 10 7.89943 10.08 7.73999 10.24C7.58055 10.4 7.50055 10.5978 7.49999 10.8334C7.49943 11.0689 7.57943 11.267 7.73999 11.4275C7.90055 11.5881 8.09832 11.6678 8.33332 11.6667Z" /></symbol><symbol viewBox="0 0 20 20" id="npm"><g clip-path="url(#npm_clip0_1_80)"><path d="M0 0V20H20V0H0ZM16.25 16.25H13.75V6.25H10V16.25H3.75V3.75H16.25V16.25Z" /></g><defs></defs></symbol><clipPath id="npm_clip0_1_80"><rect width="20" height="20" fill="white" /></clipPath><symbol viewBox="0 0 20 20" id="package"><path d="M9.16667 16.1875V10.4792L4.16667 7.58335V13.2917L9.16667 16.1875ZM10.8333 16.1875L15.8333 13.2917V7.58335L10.8333 10.4792V16.1875ZM9.16667 18.1042L3.33333 14.75C3.06944 14.5972 2.86472 14.3959 2.71917 14.1459C2.57361 13.8959 2.50056 13.6181 2.5 13.3125V6.68752C2.5 6.38196 2.57306 6.10419 2.71917 5.85419C2.86528 5.60419 3.07 5.4028 3.33333 5.25002L9.16667 1.89585C9.43056 1.74308 9.70833 1.66669 10 1.66669C10.2917 1.66669 10.5694 1.74308 10.8333 1.89585L16.6667 5.25002C16.9306 5.4028 17.1356 5.60419 17.2817 5.85419C17.4278 6.10419 17.5006 6.38196 17.5 6.68752V13.3125C17.5 13.6181 17.4272 13.8959 17.2817 14.1459C17.1361 14.3959 16.9311 14.5972 16.6667 14.75L10.8333 18.1042C10.5694 18.257 10.2917 18.3334 10 18.3334C9.70833 18.3334 9.43056 18.257 9.16667 18.1042ZM13.3333 7.10419L14.9375 6.18752L10 3.33335L8.375 4.27085L13.3333 7.10419ZM10 9.04169L11.625 8.10419L6.6875 5.25002L5.0625 6.18752L10 9.04169Z" /></symbol></defs><use id="arrow-right-usage" xlink:href="#arrow-right" class="sprite-symbol-usage" /><use id="double-arrow-right-usage" xlink:href="#double-arrow-right" class="sprite-symbol-usage" /><use id="download-usage" xlink:href="#download" class="sprite-symbol-usage" /><use id="file-usage" xlink:href="#file" class="sprite-symbol-usage" /><use id="file-2-usage" xlink:href="#file-2" class="sprite-symbol-usage" /><use id="folder-usage" xlink:href="#folder" class="sprite-symbol-usage" /><use id="github-usage" xlink:href="#github" class="sprite-symbol-usage" /><use id="inventory-usage" xlink:href="#inventory" class="sprite-symbol-usage" /><use id="npm-usage" xlink:href="#npm" class="sprite-symbol-usage" /><use id="package-usage" xlink:href="#package" class="sprite-symbol-usage" /></svg>